<?xml version="1.0" encoding="UTF-8"?>
<svg version="1.1" viewBox="0 0 2048 569" width="799" height="222" xmlns="http://www.w3.org/2000/svg">
<path transform="translate(218,182)" d="m0 0 18 1 12 3 14 7 10 9 6 7 1 2 4-2 10-9 13-8 15-6 14-3 19-1 17 2 13 5 10 6 10 9 9 14 5 13 3 14 1 13v140l-62 1-1-2-1-136-4-12-6-7-11-4h-14l-10 3-11 6-9 8-1 143-4 1h-57l-1-1-1-8v-121l-2-13-5-10-7-6-7-2h-14l-13 4-10 6-6 5-1 145-4 1h-56l-3-2v-175l1-32 15-2 36-3 3 8 3 10 7-4 11-7 12-5 11-3z" fill="#DE0C33"/>
<path transform="translate(1016,80)" d="m0 0 13 1 15 4 12 5 10 7 6 5 8 11 5 11 3 12 5-2 4-4h2l2-4 6-8 3-6 21 6 8 3-5 12-7 10-9 10-11 9-20 10-6 21-2 6 23-11 15-5h24l14 4 12 7 12 11 9 14 7 16 5 17 2 12v24l-2 19-4 17-6 16-7 14-10 14-12 13-10 9-14 8-13 4-12 1-13-2-13-5-11-4-11-1-12 3-18 7-5 1h-19l-11-3-16-8-13-12-7-7-11-15-11-21-6-18-4-20-1-21 2-20 5-19 7-18 8-12 9-10 11-8 12-5 9-2h18l16 4 16 7 5 2 1-5 5-16-16-5-11-6-11-11-7-12-5-16-1-6v-24l3-8 5-5zm17 34 3 14 6 9 5 4 11 4v-7l-5-12-7-7-10-5zm-1 121-10 2-10 6-7 8-5 10-4 15v21l3 13 8 16 6 8 9 9 9 5 4 1h14l15-5 9 1 10 4 11 1 10-3 11-8 9-10 7-12 5-17 1-10v-12l-4-16-6-12-7-8-12-6-5-1h-8l-10 3-13 6h-11l-16-7z" fill="#DE0C33"/>
<path transform="translate(822,182)" d="m0 0 20 1 15 4 16 8 10 8 10 11 8 14 6 15 4 16 2 14 1 14v12l-2 20-5 21-7 16-7 12-10 12-11 9-13 8-16 6-16 3h-22l-16-3-12-5-10-6-1-1-1 97-58 1-4-1v-298l15-2 36-3 6 16 1 6 9-7 14-9 13-5 14-3zm-21 52-12 3-8 4-9 7-7 8v81l10 10 14 7 9 2h13l9-2 11-6 8-8 7-14 3-13 1-8v-25l-3-16-8-16-7-7-10-5-9-2z" fill="#DE0C33"/>
<path transform="translate(559,182)" d="m0 0h12l22 2 25 6 15 6 12 6 9 7 1 1 1 122 2 9 4 6v2l4 2 10 4 12 2-4 40-2 5-14 2h-15l-14-2-12-4-12-7-8-8-4-6-5 5-12 10-16 8-13 4-12 2h-24l-15-3-13-5-11-6-12-11-8-10-9-17-6-21-3-23v-22l3-21 5-17 8-16 7-11 11-12 15-11 16-8 15-5 14-3zm-8 50-13 4-9 5-10 10-7 14-3 11-1 7v28l3 14 7 14 5 6 11 7 14 3h9l11-3 8-4 10-8 7-8v-90l-6-5-10-4-4-1z" fill="#DE0C33"/>
<path transform="translate(1437,182)" d="m0 0h12l22 2 25 6 15 6 15 8 7 6 1 122 2 9 5 8 9 5 16 3-4 41-2 4-15 2h-15l-17-3-12-5-10-7-9-10-2-2-12 12-11 7-14 6-20 4h-24l-15-3-11-4-13-7-12-11-8-10-7-12-7-21-3-18-1-9v-24l3-21 5-16 8-17 9-12 8-9 10-8 13-8 14-6 18-5 13-2zm-8 50-14 4-9 6-5 4-7 10-5 12-3 13v31l4 16 5 10 7 8 10 6 14 3h9l11-3 8-4 10-8 7-8v-90l-6-5-10-4-5-1z" fill="#DE0C33"/>
<path transform="translate(1830,182)" d="m0 0h11l20 2 19 5 14 6 15 10 9 8 11 14 8 16 4 10 4 18 1 8v29l-3 19-5 16-8 16-7 10-9 10-13 10-15 8-15 5-14 3-8 1h-28l-18-3-18-6-17-9-14-12-10-12-9-16-6-17-3-15-1-9v-27l2-14 4-15 5-12 8-14 8-10 10-10 14-9 10-5 15-5 16-3zm-5 50-10 3-10 6-7 8-5 10-4 16-1 9v20l2 15 4 13 5 9 6 7 11 6 14 3h11l14-3 9-5 6-5 6-9 5-15 2-15v-22l-2-14-4-13-6-10-9-8-8-4-8-2z" fill="#DE0C33"/>
<path transform="translate(1654,121)" d="m0 0 5 1v58l-1 10h63v48h-63l1 91 2 9 5 8 8 4 10 2h14l16-2 7-1 5 36 1 9-8 4-16 4-18 2h-17l-18-2-17-5-11-6-11-10-7-11-5-13-3-17v-102h-49l1-13 5-33 1-2 41-1 1-62 2-1z" fill="#DE0C33"/>
<path transform="translate(1275,100)" d="m0 0h9l1 231 2 12 4 6 3 3 11 3 18 1-1 17-3 26-3 2-18 2-18-1-15-3-12-5-12-9-8-10-6-13-4-17-1-7v-233l1-1z" fill="#DE0C33"/>
</svg>
